/* XPM */
static char * lightspeed_icon_xpm[] = {
"64 64 32 1",
" 	c None",
".	c #020204",
"+	c #474B58",
"@	c #262627",
"#	c #2C2C2D",
"$	c #101624",
"%	c #707070",
"&	c #606062",
"*	c #021965",
"=	c #22377B",
"-	c #2D3C6D",
";	c #0F297D",
">	c #505051",
",	c #3C3C3D",
"'	c #1A2E70",
")	c #0B2064",
"!	c #0F1012",
"~	c #808080",
"{	c #181818",
"]	c #485478",
"^	c #32343A",
"/	c #434448",
"(	c #1F2023",
"_	c #787878",
":	c #68686A",
"<	c #354370",
"[	c #57585D",
"}	c #02103D",
"|	c #868685",
"1	c #0C1A47",
"2	c #022080",
"3	c #202C51",
"................................................................",
"................................................................",
"................................................................",
"...........................}2*..................................",
"..........................(<;;[/,^@(!!...}**....................",
"..................*}..(^>::&''&%_~~~~~_%[;;2^#({!..........}}...",
".................*22)&%:[,{}=1...!{(#,+:&&<2_|||~~_%&[+,^(*22*..",
"..............{^>:=2:_%%[/,#%,...}**}^[&[,;*$(#,/>&%~~|||:;<;2..",
"....}.....!#>:%%%&'2->&%__~~~~_%[)222+[^.{%{..........!(#^+>'*..",
"..*22*}#+:___%>^!.)=}....{(^::&%&[]2=~~_%:_>^@{!......}**3>-*...",
".}2222':__:/(.....^|{.......:+/&::+2;[:_~~|||||~~%&>/(2222-~{...",
".}222]%::&,#{!....(|@.}}..!^&:::/();}...!/_,+[%~~||||;;-;2'~....",
"..*22-:%%%_%%%:>/##~-*22*3::::,{..:~.....,_.....!(#,>3>[=2'&....",
"..}*2*}!(^+&%%_____&*2222):&&/....:~.....+%.........{>[+22:/....",
"....[:{......{#/[:%[2222'_%&:[(!..:_.....>&........{>[[=)#|#....",
"....[|^...........![*222=~~~~~~_%&%%@!...[[....}}}$>[>%|@/~!....",
"....,|>............[<2222^/[%_~~~|~~~__:>:[{..}*22*)>(_~![_.....",
"....(~%............+_}*;1...^&@,>:_~~|||||~~_<*2222*1!~_._[.....",
"....._~!...........,~.:|,...221...::^/&%_~|||'222222}@|&!~,.....",
".....&|@...........#~!&|/.!/[2%_:>%%....!%>[%*222222*,|/@|(.....",
"...../|/...........{~(>|>#:&^'!(^>__~%>,*-)..}222222}>|#,~!.....",
".....(|&...........!~#/|%:^.#%....::(,[&';;[,3*2222*.:~{[%......",
".....!~_...........!:3+|:!..@%....::...#:-)[%~[)**3$.__.%>......",
"......:~{..........*22+~:...{_....:[..,:/[!..!#_~%||_~:*';......",
"....../|^.........#:=;%~%/@!{_....:[.+:@(~....!_|+!(>~]''2}.....",
"......#~>.......(&_[))#~_%~_%%#!..%[>:(.#_....(~~,..,~/[+2......",
"......!~:.....!>_:@./%!~_!{^[_~~:*;;'{..^:....#~~#..[~>&/.......",
".......%~!...,%_,...^_._~{..!_(,+';2+>^{,&....,~~{..:~&:>.......",
".......>~(.#:_[{....@~!%~{..!_!.#%+2]~|~_:^{..+~_!.._%&_#.......",
".......3:;3_%#......{~{&~@...&$,%[<3..(,%~||_[&~%..{~:[~{.......",
"......}222;^!.......!~([~#..);]%>._+....>+(/:~%~%&)2<'<_........",
"......}22;_:+(......._#+~^.(::%&_:_>....[,...!%~:~)222=&........",
".......*22/:__%+(....:,/~,^%%%/.!#___[^!]^...!_~,!)[-2-/........",
"........1[#.{/:__%>@.[/^~:%%%^...._/{,:'22@..{_~#./:-):#........",
"........{~+....(/%_~%:>3~+-%#....._/...++;_~&>~_{(::+(~!........",
".........%:.......(+%~-2222(......_^..^:$..{,&~_>[:%/^%.........",
".........[_!........}-)222<[#!...._^.(%(...../~%&::~-=<.........",
".........,~(........^]*222&~~_[^!._^{:,......>~&&:&_';2}........",
".........(_,......./_^}}*)+___~~~&%,&>.......&~:%>[_^:2.........",
".........._[.....![%(...&%!#[___~||~%,!......:_::{:&[/..........",
"..........&%....!::{....[_!..!^&_<:~||~&^!..!%_:+!_::{..........",
"..........,_!..(%&!.....>_{.....!=;'__~||~:1)%_'!{_:>...........",
"..........(_#.^_[......./_(.....@_-1,%~__~~)22;2}#_:(...........",
"..........!_+^~/........,_@....{%>....{/_~[22222*/_[............",
"..........}+=)#.........#_#...!:&........(,*2222*[:#............",
"..........*22<^.........(_^...&%!..........}*22**=-}............",
"..........}22:~%,!......{_,..>_@............,<1}2;2*............",
"...........}}.#&~_>{....!%/.,_,.............&_@.>&2}............",
"................([_~&@...%>#_>..............%%{!%+}.............",
"..................{+_~:^!:&[:..............!%%!/%{..............",
"....................!,_~']+)!..............{%:!%[...............",
".......................#222;(..............@%[/_(...............",
"........................*22]~:#............^%>%&................",
"........................}**([~|%,!.........,%:_#................",
".............................{>~|~>{.......+%%%.................",
"...............................!,_|~&@.....[%%,.................",
"..................................^%||%^...::%!.................",
"....................................#:||_^):&^..................",
"......................................([~<2]+*..................",
"........................................!)2222..................",
".........................................}222*..................",
"..........................................*2*}..................",
"................................................................",
"................................................................"};
