/* XPM */
static char * lightspeed_title_xpm[] = {
"300 60 32 1",
" 	c None",
".	c #020204",
"+	c #024287",
"@	c #022245",
"#	c #0262C6",
"$	c #021225",
"%	c #0252A6",
"&	c #023265",
"*	c #0274E8",
"=	c #020A15",
"-	c #024A95",
";	c #022A55",
">	c #026AD4",
",	c #021A35",
"'	c #025AB7",
")	c #023A76",
"!	c #027AF4",
"~	c #02060D",
"{	c #02468E",
"]	c #02264D",
"^	c #0266CC",
"/	c #02162D",
"(	c #0256AE",
"_	c #02366D",
":	c #020E1D",
"<	c #024E9D",
"[	c #022E5E",
"}	c #026EDC",
"|	c #021E3D",
"1	c #025EBC",
"2	c #023E7D",
"3	c #027EFC",
"............................................................................................................................................................................................................................................................................................................",
"............................................................................................................................................................................................................................................................................................................",
"............................................................................................................................................................................................................................................................................................................",
"............................................................................................................................................................................................................................................................................................................",
"............................................................................................................................................................................................................................................................................................................",
"............................................................................................................................................................................................................................................................................................................",
"............................................................................................................................................................................................................................................................................................................",
"............................................................................................................................................................................................................................................................................................................",
"...............................~....................~~..........~~~~~~~~~~~~~~~~~.........~~..............~~~........~~~~~~~~~~~~~~............................~~~~~~~~~~...............~~~~~~~~~~~~~...........~~~~~~~~~~~~~.........~~~~~~~~~~~~~........~~~~~~~~~~~~~~~~.................................",
"..........................~~======~~~...........~~======~~~~~~======================~~~=======~~~.....~~=======~~~===================~~...................~~~==============~~.......~~=================~~~~~~~==================~~~==================~~~=====================~~~....~~======~~..............",
"........................~~=:$$$$$$::=~~.......~=::$$$$$$$:::::$$$///////////////$$$$::$$$$$$$$::=~~~~==:$$$/$$$$$$$$$$/////////////$$:==~...............~==:$$$//////////$$:==~~.~~=::$$/////////////$$:::==::$$$////////////$$$$$$$$$////////////$$$$$$$$$$///////////////$$::=~~~==:$$$$$$:=~~............",
".......................~=:$/,|||||,/$:~~.....~=:/,||||||,,//,,|||@@@@@@@@@@@@@@@@||,,,,,||||||,/$:==::/,,||@|||,,,,|||@@@@@@@@@@@@||,,$:=~............~~=:$/,||@@@@@@@@@||,,$:==~==:/,,|@@@@@@@@@@@@@||,//$//,,||@@@@@@@@@@@@|||,,,|||@@@@@@@@@@@@|||,,,,|||@@@@@@@@@@@@@@@||,/$:::$$/,||||,/$:=~...........",
"......................~=:/|@;;[[[;]@,$:~~..~~:$,|];[[[[;;]]]]];[[[[&&&&&&&&&&&&[[[;;;;;;;[[[[;]@,/$$/,|];[[[[[;;;;;;[[[[&&&&&&&&&[[[;]|/:=~..........~=:$,|@;;[[[&&&&&&[[[;]|/$:::$,|];[[[&&&&&&&&&[[[;]]@@@@];[[[[&&&&&&&&[[[[;;;;;[[[[&&&&&&&&[[[[;;;;;;[[[[&&&&&&&&&&&[[[;]@|,//,|@;;[[;;@|/:=~..........",
".....................~=:/|;[_))))_&;@,$=~.~~=$,@;&_)))))__&&&_))22222222222222222))_____)))))_&;]|,,|];&_))2)))____))22222222222222)_&]|/:~.........~=:/|@;&_))2222222222)_&;@,/$/|@;&_)2222222222222))_&[[[[&_))222222222222)))___)))2222222222222))____))2222222222222222)_&[;@@@];&_))))_[]|/:~..........",
".....................~:/@;_)+{--{+2_[@/:=~~=$,][_2+{--{{{+++++{{------------------{{++{{{---{+2_[;]];[_2+{---{{{++{{{--------------{+)&]|$=~.......~=:/|]&)2+{-----------{+)&;@|,|][_2+{-------------{{+22))2++{--------------{{{+{{{--------------{{{++{{{----------------{{+)_&[[&)2+{{{{+)&],$=~.........",
"....................~=$|;&2%##^^##1{&],$===:/@[){1##^^^#1<--<(1^^^^^^^^^^^^^^^^^^^#'<<<1#^^^##1+_&[[&)+'##^^^^#%<<%#^^^^^^^^^^^^^^^##()[@/:~......~=:/|;&)+-(1^^^^^^^^^^^##()&;@@][)+'##^^^^^^^^^^^^^^#'-{{{-(##^^^^^^^^^^^^^^^'<<<#^^^^^^^^^^^^^^^^#%<<(#^^^^^^^^^^^^^^^^^^#1{+2))2+%##^###%);|/=~.........",
"....................=:,]&2-*333333*{_;|$:=:/|;_+'3333333>(%(}33333333333333333333331(('3333333*{2)__2+%!333333*(((}33333333333333333312&@/:~......~:/|;&2->333333333333333312_[;;&)+(3333333333333333333*'%%%*33333333333333333#((#33333333333333333*(((*333333333333333333333><-{{-<*3333331)[@/:~.........",
"...................~:/|;)+13333333#+_;|$::$,]&2-*33333331''}3333333333333333333333*'''>33333331-+2)2+-^3333333^'''333333333333333333!<2&@/:~.....~=$,]&2<*3333333333333333!<+_&[&_2{}33333333333333333333}((#33333333333333333!'''*33333333333333333^''13333333333333333333333*%%<<%13333333-2[@/:~.........",
"...................=:,]&2-*3333333<+&],$::/|;_+(3333333}''^33333333333333333333333^1'1!333333*<-+22+-%!333333!1''>333333333333333333>{)[@/=~.....~:/@[){*33333333333333333^-2_&&_2{%333333333333333333333>''*33333333333333333>11#33333333333333333!111*3333333333333333333333*'((((*333333^{)[|$=~.........",
"..................~=/|[){'3333333>-2[@/$::/@[2-}3333333^11*3333333333333333333333!111>3333333^<-+++{<13333333>''1!333333333333333333%+_;,$=~....~=$|;_+1333333333333333333%{)_&&_+-^33333333333333333333!11#333333333333333333111*33333333333333333}11#33333333333333333333333>''''13333333(+_;|$=..........",
"..................~:,]&2-}3333333({);|/::$,]_+(3333333*11#33333333333333333333333>111*333333!(<{++{-%*333333!1''>333333333333333333}{)[@/:~.....~:/@[2-*33333333333333333}{2_&[&)+%!33333333333333333333}11}33333333333333333}11#333333333333333333#11}33333333333333333333333111'1}333333}-2&@/:~..........",
".................~=$|;){(3333333*-2&],$::$|;_{^3333333^11>3333333333333333333333!111^3333333}%<{++{-'!333333}(((*333333333333333333(2_]|$=~.....~:,]_+%!33333333333333333(+)&[[&){#333333333333333333333#1#!3333333333333333!#11>33333333333333333*111!3333333333333333333333*11111!333333'{)[|/=~..........",
".................~:/]&2->3333333'{)[@/:::/@[){%('1111111111111111111111111111111''''111111''(%<-{{-<%('''''(%%<%%(''111111''((%%<-{2_;|/:~......=$,;_+'33333333}#11''(%<-+)&;;[&2{%('111111111#*3333333*111111111111111111111111111111111111111111111111111'''''''1^!33333333#1111>333333*-+&],:=...........",
"................~=$|;_+%3333333*-+_],$::$,]&2-%''111111111111111111111111111111'''''111111''(%<---<%('''''(%<---<%(''1111''(%<--+2)&;@/:=~......=$|;){#3333333!#111'((<-+)&;]][_+-%('1111111111*3333333^11111111111111111111111111111111111111111111111111''((((((''}3333333*11111!3333331{)[@/:~...........",
"................~:/@&2-^3333333#{)[@/$::/|[){<(''111111111111111111111111111111'''''1111111''(%<<<%((''''(%<{++{-<(''111''(%<{+2_&[]|/$=~.......=$|;){#3333333*111''(%-+)&;]];[)+<(''111111111#3333333*11111111111111111111111111111111111111111111111111''((%%%%(''*3333333^1111^333333*<+_],$=............",
"................=$,]_+<*333333!%+_;|$::$,]&2-%('1111111111111111111111111111111'''''1111111'''((%%(('''''(%-+222{<%''111''(<-+_&;]@,/:=~........=$|;_{#33333333^11''(<{2_[]@];_2-<('1111111111}3333333^11111111111111111111111111111111111111111111111111''(%<<<<%('3333333!11111*333333^-2&@/:~............",
"...............~:/@[){#3333333^-2&@,$:$,@[){('1#####111########1111###########11''############11111#####11<{2))2{-%1#####1'-+_[]|,/$:=~.........~:,]_+(333333333*^1'%<{2&;]];&){%'1#######^#^}3333333!11#^^#^^#^^#^^#######111##################111#######1(<---<%(>3333333>1111^3333333%+_;|$=~............",
"...............=$,]&+-*3333333%{_;|/$$/|;_+(3333333*11^3333333*1111!3333333333^111!3333333333333333333333!<{2))2{<13333333^{)&]|/$:=~~..........~:/@&2<!3333333333*>'<{2_[;;&_+<!33333333333333333333>11*33333333333333333>11#33333333333333333!111*33333331<-{-<%(!333333!#1111*333333>-2&]/:~.............",
"..............~=/|[){'3333333}-2&],$$$,]&2-}3333333^11*3333333#111>3333333333!111>33333333333333333333333^-+2))2{<*3333333%+_;|/:=~~............~=$|;_+#3333333333333^-+)_&&_2-#33333333333333333333!#1#333333333333333333111}33333333333333333}11#!333333*%<-{-<%#3333333}1111#3333333({);|$=~.............",
"..............~:,]&2-}3333333'{)[@/$$/|;_+%!333333*11#3333333*1111!3333333333}111*3333333333333333333333!(-+2)2+-(3333333}-2&@/:=~...............~:/@[){}3333333333333#-+2))+{%!33333333333333333333}11}33333333333333333*11#!33333333333333333#11}3333333#<-{{-<%*333333311111}333333*-2&],:~..............",
".............~=$|;){(3333333*<+_]|/$$,]&2->3333333^11}3333333^111^3333333333!#11^33333333333333333333333><{+22+{<}3333333({);|$=~................~=$|]&){#!33333333333!(-{{{-<#333333333333333333333#1#!33333333333333333#11>33333333333333333*111!333333!%<----%13333333*1'''1!333333'{);|/=~..............",
".............~:/@&2->33333331-2&],$$/|;_+<!333333!11#!333333!1111*3333333333*111*33333333333333333333333'-+222+-(!333333*-2&],:~................~~=$/@;_2{%#*3333333333#%<-<<%*33333333333333333333}11>33333333333333333*111!33333333333333333#11>3333333>%<---<%}3333333#''''>333333*-2&],:=...............",
"............~=$|;_+%3333333*<{)[@,//|]&2-#3333333>11>3333333>1''#!3333333333#11#33333333333333333333333*<-+22+{<>33333331{)[|/=~..............~~~=:$/|][)+-<(^333333333}(%%%(#3333333333333333333!}111!33333333333333333^11>33333333333333333*111*333333!'%<--<<'3333333*''(''*3333331+_;|$=~...............",
"............~:/@[2-^3333333^<{)&]|,|@[_+<*333333!#11!33333331'''1#^33333333*111}3333333>####^^^*33333331-{222+-%!333333*<+_],$=.............~~==:$$/,|][_2{<%(^33333333*''(''*3333333^#11111111111''1^3333333*^^^^^^^^^^111*333333!^^^^^^^^^^#11^3333333}(%<-<<%>3333333#'((((11111'%{)[@/:=................",
"............=$,;_+%!333333!'<{2_[]]][_2-13333333}11^3333333}''''''1*3333333^11#3333333*'''''''1!333333*%-+22+{<^3333333#{2[@/:~............~=:$/,,||@];[_2{-%('*3333333*''''#3333333*(%<<-----<<%(''1*3333333#111111111111^3333333*1111111111111*33333331(%<<<%(3333333!'((%(((''(%<{)&],$=~................",
"...........~:/@[){13333333>(%-+)_&[&_2{<*3333333#11*3333333#''''''1!333333*111}3333333^(((((''>3333333^<{+22+-%*333333!%+_;|$=~...........~=:/,@]];;[[&_)+{<%('*3333333}1111*33333331%-{+2222++{<%('#3333333*1111111111111*3333333#111111111111#3333333*'((%%%(^3333333>'((%(((''(%-2_;|$:~.................",
"...........=$,]_+<*33333331'(<-{2222+{<'3333333*11^3333333*1''''''>3333333>111!3333333(%%%%(('!333333!%-+222{-13333333>-2&@/:~...........~=$,|][&__)))22+{<%('1!3333333>11113333333*%-+)_&&[&&)2{<%(*3333333^111111111111#3333333*1111111111111*3333333#''(((('!333333!1'(((((('((<{)[@/:=..................",
"..........~=/|[){'3333333*''((%<-{{--<%}3333333^11*3333333}1'''''1!3333333111>3333333>%<<<<%(^3333333><{+22+-<*3333333%{);|$=~..........~=$,@;&)2++{{{{--<%%('>33333333#111}3333333#-+)&;]@@];[_+-%'3333333*1111111111111}3333333^111111111111#3333333*1''''''>3333333}'''((('''(%-+_;,$=~..................",
"..........~:,]&2-*3333333^#111''(((%%(13333333*11#33333333!^####^*3333333}111*3333333'<---<%(*333333!(-{222{-'3333333}-2&],:~...........~:/@;_+<%%((((((''1#>*33333333*1111!333333!%{)[]|,//,@;&2-%>3333333>#########111#!333333!##########111}3333333>##111#>333333331'''''11111'<+&],:~...................",
".........~=$|;){(33333333333333333*'('}3333333^11}33333333333333333333333#11^3333333}%<-{-<%13333333}<{+22+{<}3333333'{)[|$=~..........~=$|;_2'33333333333333333333333#111>3333333^-2&]|/$:$/,]&2-(!3333333333333333!#11}33333333333333333}111!3333333333333333333333*11''1*333333(2&@/:~...................",
".........~:/@&2->33333333333333333}''13333333!11#!3333333333333333333333*111*3333333'<-{{-<%*3333333'-{222{-(3333333*<+_],:=...........~:,]&2{*3333333333333333333333}1111*3333333%{_;|/:===$,]&2-^33333333333333333*111!33333333333333333#11>33333333333333333333333#1111>333333*-2[@/=~...................",
".........=$,;_+<!33333333333333333#'1>3333333>11>33333333333333333333333#11#3333333*%-{{{-<(3333333*<{+22+{<>33333331{)[@/:~..........~=$|;_+(3333333333333333333333*1''1^3333333}-2&],$=~~=$,;_+<*33333333333333333^11>33333333333333333*111*3333333333333333333333*1''11*333333#{);|$=~...................",
"........~=/|[){^33333333333333333*111*333333!1''*3333333333333333333333*''1}33333331<{++{-<>33333331-+2)2+-%3333333!<+_],$=~..........~:/@&2-*333333333333333333333*'''''*3333333(+);|$=~~~=$|[){133333333333333333*111*33333333333333333^11^33333333333333333333333#''''^333333!<+_],:=....................",
"........~:/@&2<*33333333333333333^''^3333333}'''*3333333333333333333333#''1!333333*<{+22+-%!333333*<{2)))+-#3333333^{)[@/:~...........=:,]_+(333333333333333333333}(%%((#3333333}-2&],:=~~~:/@[)-*33333333333333333>''#33333333333333333!1''*3333333333333333333333>(((('*333333^{)[@/:~....................",
"........~:/@&2'33333333333333333*'('*3333333'%%(*33333333333333333333!1(((>3333333#{+)))2{#3333333#{2_&&_2-*333333!<2&],$=~...........=$,]_+}3333333333333333333*1<--<<%}3333333'+_;|$=~..~:/@[)(33333333333333333!'('*33333333333333333>((13333333333333333333333^<<<<%13333333<+_;,$=~....................",
"........~:/@[)}!!!!!!!!!!!!!!!!!#%%'!!!!!!!}<<-<1*!!!!!!!!!!!!!!!!!*^(<<<<*!!!!!!*-2_&&_)+*!!!!!!*-2_&[[&)%*!!!!!!^+_;|/:~............=:,]&{*!!!!!!!!!!!!!!!**^'-{++++{<*!!!!!!*+)[@/:~...~:/@[)^!!!!!!!!!!!!!!!!!>%%'!!!!!!!!!!!!!!!!!*(%%>!!!!!!!!!!!!!!!!!!!*>(-{++{-^!!!!!!>+)[@/:~.....................",
"........~=/|;_2{-<<<<<<<<<<<<<--------<<<--{++++{{--<<<<<<<<<<<<<<--{++++{{-----{+)_[;;;&)+{----{+)_[]]];&)+{----{2_[@/:=~............~:/@[)+{-<<<<<<<<<<<<<--{+2)_&&_)+{-----{+)[],$=~...~=$|;&2{-<<<<<<<<<<<<<--------<<<<<<<<<<<<<<--------<<<<<<<<<<<<<<<<--{+2)__)2+{----{+_[@,$=~.....................",
"........~=$,@[_)2++++++++++++++222222++++22)____))2+++++++++++++++22)_____)2+++2)_&;@||@;[_)2++22_&;@|,|@;&)2+++2)&[@,$=~.............~=$|][_2+++++++++++++++2)_&[;]];[_)2+++2)_[],$=~....~=:,@;_)2++++++++++++++222222+++++++++++++++2222222++++++++++++++++++2)_[[;;[&_)2++2)_[],$=~......................",
".........~:$,@;[&&___________&&&[[[[&&&&&&[;;]]];[&&&____________&&[;;]]];[[&&&&[;@|,//,|@;[&&&&[;]|/$$/,|];[&&&&[]@,$=~..............~=:/|];[&&___________&&[[;@|,,,|@];[&&&&[;@,$:~......~=$,@;[&&___________&&&[[[[&&&____________&&&[[[[&&&______________&&[;]@|||@];[&&&&[;@,$:~.......................",
"..........~:$/|@@]]]]]]]]]]]]]]@@@@@@]]]]@@|,,,,|@@]]]]]]]]]]]]]]]@@||,,,||@]]]@@|,$:::$/,|@@]]@@|,/::=:$/,|@]]]@|,/$=~................~=:/,|@]]]]]]]]]]]]]]@@|,//$$$$/,|@]]]@@|/$:~~.......~=$/|@@]]]]]]]]]]]]]]@@@@@@]]]]]]]]]]]]]]]@@@@@@@]]]]]]]]]]]]]]]]]]@|,//$$/,|@@]]@@,/$=~~.......................",
"..........~~=:$///,,,,,,,,,,,////$$////,///$$:::$$//,,,,,,,,,,,,,///$$:::$$//////$:==~~==:$//////$:==~~~=:$$/////$$:=~..................~=::$//,,,,,,,,,,,,///$$:=====::$//////$:=~..........~=:$///,,,,,,,,,,,////$$////,,,,,,,,,,,,////$$///,,,,,,,,,,,,,,,///$::===::$//////$:=~.........................",
"............~~==::::::::::::::::====::::::===~~===:::::::::::::::::===~~===:::::==~~~..~~===::::===~~...~~==:::::==~~....................~~==::::::::::::::::===~~~..~~===::::==~~............~~==::::::::::::::::====:::::::::::::::::=====:::::::::::::::::::===~~~~~===::::==~~..........................",
"..............~~~~~~~~~~~~~~~~~~~~~~~~~~~~~~.....~~~~~~~~~~~~~~~~~~~~.....~~~~~~~~........~~~~~~~~.........~~~~~~~..........................~~~~~~~~~~~~~~~~~~~.........~~~~~~~.................~~~~~~~~~~~~~~~~~~~~~~~~~~~~~~~~~~~~~~~~~~~~~~~~~~~~~~~~~~~~~~~~~........~~~~~~.............................",
"............................................................................................................................................................................................................................................................................................................",
"............................................................................................................................................................................................................................................................................................................",
"............................................................................................................................................................................................................................................................................................................",
"............................................................................................................................................................................................................................................................................................................",
"............................................................................................................................................................................................................................................................................................................",
"............................................................................................................................................................................................................................................................................................................",
"............................................................................................................................................................................................................................................................................................................"};
